<?xml version="1.0" encoding="UTF-8"?>
<svg version="1.1" xmlns="http://www.w3.org/2000/svg" width="512" height="512">
<path d="M0 0 C159.72 0 319.44 0 484 0 C484.0825 46.2825 484.165 92.565 484.25 140.25 C484.28641602 154.86313477 484.32283203 169.47626953 484.36035156 184.53222656 C484.37841797 202.37841797 484.37841797 202.37841797 484.3817749 210.7333374 C484.38550107 216.56787579 484.40015679 222.40226052 484.42230225 228.23675537 C484.44782504 234.97104678 484.45932949 241.70519109 484.4537798 248.43953119 C484.45137765 251.88198227 484.4550954 255.3241049 484.47686052 258.76649523 C484.49682779 262.46164039 484.49193445 266.1559704 484.48101807 269.85113525 C484.49266872 270.91312008 484.50431938 271.9751049 484.51632309 273.06927109 C484.4226955 284.90302235 480.95502291 294.2494748 473 303 C472.195625 303.886875 471.39125 304.77375 470.5625 305.6875 C460.45096156 314.81254689 448.68282269 321.24141723 434.76626968 321.25726891 C434.06925512 321.26077498 433.37224056 321.26428105 432.65410435 321.26789337 C430.3250068 321.27717662 427.99616097 321.27229209 425.66705322 321.26742554 C423.97768124 321.27116335 422.28831099 321.2757654 420.59894347 321.28115618 C415.96133054 321.2933854 411.32378975 321.2931258 406.68616438 321.29076743 C401.68261066 321.29035925 396.67908005 321.30139859 391.67553711 321.31088257 C381.87429113 321.32749316 372.0730692 321.33299214 362.27181032 321.33410732 C354.30439015 321.33505778 346.33697791 321.33916793 338.36956024 321.34550858 C315.7782489 321.3631212 293.18695656 321.37234742 270.5956383 321.37084763 C268.7689077 321.37072776 268.7689077 321.37072776 266.90527344 321.37060547 C265.68596531 321.37052371 264.46665718 321.37044195 263.21040031 321.37035771 C243.45007242 321.36954482 223.68982076 321.38868321 203.92951491 321.4168822 C183.63760207 321.44561122 163.34572641 321.45942248 143.05379272 321.45769465 C131.66229645 321.45703075 120.2708801 321.46252299 108.87940216 321.48405075 C99.18033542 321.50226276 89.48138481 321.50660968 79.78230837 321.4930319 C74.8351147 321.48650238 69.88814384 321.4863846 64.94097137 321.5037384 C60.4082362 321.5194747 55.87590038 321.51659975 51.3431749 321.49917014 C49.70726207 321.49610148 48.07131939 321.49972757 46.43544176 321.51089029 C33.45005653 321.59359903 22.22691908 319.66891187 12 311 C2.31703758 300.5821699 -0.31433469 288.99523381 -0.24050903 275.14233398 C-0.24222107 273.96635147 -0.24393311 272.79036896 -0.24569702 271.57875061 C-0.24842236 268.32586487 -0.24218404 265.07313992 -0.23214546 261.82027316 C-0.22338676 258.25437409 -0.22633635 254.68848074 -0.2277813 251.12257385 C-0.2288429 244.20644074 -0.21962495 237.29035972 -0.20677864 230.37423998 C-0.19235949 222.37123301 -0.19078809 214.36825719 -0.18920898 206.36523438 C-0.17871504 185.24348135 -0.15079274 164.12173989 -0.125 143 C-0.08375 95.81 -0.0425 48.62 0 0 Z M88.125 60.9375 C85.57976018 65.60377299 85.82413669 70.4768418 85.796875 75.67578125 C85.79117493 76.5191655 85.78547485 77.36254974 85.77960205 78.23149109 C85.77016903 80.01425936 85.76362482 81.79704493 85.75976562 83.57983398 C85.75007159 86.29246822 85.71903732 89.00434067 85.6875 91.71679688 C85.68096806 93.45312053 85.67571834 95.18944957 85.671875 96.92578125 C85.6595282 97.73018143 85.6471814 98.5345816 85.63446045 99.36335754 C85.657784 105.32710312 86.67060141 110.08825176 90.5 114.875 C93.25129844 116.93847383 95.88238922 117.13291416 99.19262695 117.17700195 C100.45457634 117.19625481 100.45457634 117.19625481 101.74201965 117.21589661 C102.64828598 117.22328354 103.55455231 117.23067047 104.48828125 117.23828125 C105.4242363 117.246353 106.36019135 117.25442474 107.32450867 117.26274109 C109.30575717 117.27657102 111.2870294 117.28729805 113.26831055 117.29516602 C116.29066345 117.31237566 119.31192139 117.35627112 122.33398438 117.40039062 C124.26040864 117.41051826 126.18684218 117.41903414 128.11328125 117.42578125 C129.4635717 117.45204338 129.4635717 117.45204338 130.84114075 117.47883606 C136.37767513 117.45979711 139.69711085 116.82783383 144 113 C147.85729884 108.54624847 147.46751918 103.70630291 147.46875 98.09765625 C147.47636353 97.14233505 147.48397705 96.18701385 147.49182129 95.20274353 C147.50260581 93.18637704 147.5054821 91.16995475 147.50097656 89.15356445 C147.50000428 86.0760343 147.54164396 83.00099853 147.5859375 79.92382812 C147.59114492 77.96094268 147.59383269 75.9980486 147.59375 74.03515625 C147.61014526 73.11936295 147.62654053 72.20356964 147.64343262 71.26002502 C147.5976843 67.01075418 147.4261971 63.93460265 144.77539062 60.49780273 C139.45517595 55.70970313 134.86303443 55.69166555 128.0078125 55.69921875 C127.14364716 55.69493362 126.27948181 55.6906485 125.38912964 55.68623352 C123.56525547 55.68050402 121.74135846 55.67997977 119.91748047 55.68432617 C117.14120056 55.68748159 114.36599173 55.66402595 111.58984375 55.63867188 C109.81250134 55.63639814 108.03515607 55.63569573 106.2578125 55.63671875 C105.4346756 55.627509 104.6115387 55.61829926 103.76345825 55.60881042 C97.77120297 55.65640832 92.48791222 56.42915737 88.125 60.9375 Z M207.125 60.9375 C205.32669824 64.23438656 204.87605343 67.3076949 204.83886719 71.03076172 C204.82925964 71.81192352 204.8196521 72.59308533 204.80975342 73.3979187 C204.80550354 74.2334024 204.80125366 75.06888611 204.796875 75.9296875 C204.79117493 76.79763947 204.78547485 77.66559143 204.77960205 78.55984497 C204.77016892 80.39388821 204.76362478 82.22794828 204.75976562 84.06201172 C204.75005884 86.85804985 204.71901936 89.65335295 204.6875 92.44921875 C204.68096942 94.23437065 204.67571916 96.01952779 204.671875 97.8046875 C204.6595282 98.63612274 204.6471814 99.46755798 204.63446045 100.32418823 C204.65650877 106.109506 205.70827135 110.23082788 209.5 114.8125 C212.25489117 116.99345551 214.93053761 117.13085472 218.30029297 117.16113281 C219.164841 117.17074036 220.02938904 117.1803479 220.9201355 117.19024658 C222.31705124 117.1966214 222.31705124 117.1966214 223.7421875 117.203125 C225.18297165 117.21167511 225.18297165 117.21167511 226.65286255 117.22039795 C228.68539326 117.22984458 230.71793927 117.23638059 232.75048828 117.24023438 C235.85606657 117.24994082 238.96098326 117.28096786 242.06640625 117.3125 C244.04166274 117.31903017 246.01692396 117.32428059 247.9921875 117.328125 C248.9194162 117.3404718 249.8466449 117.3528186 250.80197144 117.36553955 C255.64453312 117.3488513 259.17958823 117.32013052 263 114 C266.87383473 109.52196979 266.43551287 104.68516806 266.3984375 99.0625 C266.40274277 97.62596069 266.40274277 97.62596069 266.40713501 96.16040039 C266.4091724 94.13980517 266.40366533 92.11919008 266.39111328 90.09863281 C266.37505521 87.01061791 266.39097323 83.92391182 266.41015625 80.8359375 C266.40817376 78.86978879 266.40432997 76.90364088 266.3984375 74.9375 C266.40451019 74.01654541 266.41058289 73.09559082 266.4168396 72.14672852 C266.3635641 67.27692831 266.17693987 63.94766529 263 60 C258.12223261 55.73195353 253.42814568 55.82846345 247.203125 55.796875 C245.90263214 55.78832489 245.90263214 55.78832489 244.5758667 55.77960205 C242.74004332 55.77015627 240.90420301 55.76361974 239.06835938 55.75976562 C236.27443395 55.75008466 233.48125204 55.71906782 230.6875 55.6875 C228.90104602 55.68096708 227.11458679 55.67571774 225.328125 55.671875 C224.49871399 55.6595282 223.66930298 55.6471814 222.8147583 55.63446045 C216.79381908 55.65731526 211.51158086 56.40469978 207.125 60.9375 Z M327.65820312 61.05493164 C325.22578953 65.37504431 325.42669453 69.24033096 325.46875 74.12109375 C325.46300964 75.58736961 325.46300964 75.58736961 325.45715332 77.08326721 C325.45443625 79.14674919 325.46178305 81.21026572 325.47851562 83.27368164 C325.49990476 86.42347486 325.47871849 89.57098119 325.453125 92.72070312 C325.45576876 94.72917168 325.46089474 96.73763882 325.46875 98.74609375 C325.46065308 99.68376083 325.45255615 100.62142792 325.44421387 101.58750916 C325.52404839 107.18692559 326.11689382 110.64861174 330 115 C332.907241 116.77929491 335.10269129 117.25709883 338.48974609 117.29052734 C339.37101166 117.30328705 340.25227722 117.31604675 341.1602478 117.32919312 C342.1051004 117.33141876 343.049953 117.33364441 344.0234375 117.3359375 C345.49183578 117.3459227 345.49183578 117.3459227 346.98989868 117.35610962 C349.05932742 117.36622731 351.12878874 117.37092691 353.19824219 117.37060547 C356.35666968 117.37497464 359.51369503 117.41129301 362.671875 117.44921875 C364.68489107 117.45508795 366.69791376 117.45905665 368.7109375 117.4609375 C369.65174164 117.47530853 370.59254578 117.48967957 371.56185913 117.50448608 C377.12518013 117.46591723 380.81721358 117.05935184 385 113 C387.19957248 107.81337331 387.2946343 102.78976622 387.265625 97.25 C387.26753845 96.43305664 387.2694519 95.61611328 387.27142334 94.77441406 C387.27277715 93.05663747 387.26913724 91.33885036 387.26074219 89.62109375 C387.25003105 87.00757637 387.26066477 84.39474627 387.2734375 81.78125 C387.27211576 80.10416517 387.26955307 78.42708076 387.265625 76.75 C387.26967346 75.97688477 387.27372192 75.20376953 387.27789307 74.40722656 C387.23709805 69.63381908 386.66129967 65.53679085 385 61 C381.27000621 57.36564707 378.16030922 55.88903235 372.9909668 55.83886719 C371.78907967 55.82445587 371.78907967 55.82445587 370.56291199 55.80975342 C369.70039322 55.80550354 368.83787445 55.80125366 367.94921875 55.796875 C366.61187431 55.78832489 366.61187431 55.78832489 365.24751282 55.77960205 C363.36041448 55.77015651 361.47329968 55.76361984 359.58618164 55.75976562 C356.70885179 55.75007193 353.83223999 55.71904945 350.95507812 55.6875 C349.1197959 55.68096843 347.28450857 55.67571856 345.44921875 55.671875 C344.59277267 55.6595282 343.7363266 55.6471814 342.85392761 55.63446045 C336.54639537 55.65780964 332.51814401 56.79032338 327.65820312 61.05493164 Z M88.25 196.9375 C85.47732371 201.51241588 85.82417743 206.46907228 85.796875 211.67578125 C85.79117493 212.5191655 85.78547485 213.36254974 85.77960205 214.23149109 C85.77016903 216.01425936 85.76362482 217.79704493 85.75976562 219.57983398 C85.75007159 222.29246822 85.71903732 225.00434067 85.6875 227.71679688 C85.68096806 229.45312053 85.67571834 231.18944957 85.671875 232.92578125 C85.6595282 233.73018143 85.6471814 234.5345816 85.63446045 235.36335754 C85.65514342 240.65191566 86.53345329 244.29979133 89 249 C93.69878125 253.54720766 99.20508961 253.16948801 105.421875 253.203125 C106.24069153 253.20882507 107.05950806 253.21452515 107.90313721 253.22039795 C109.63463049 253.22983085 111.36614158 253.23637513 113.09765625 253.24023438 C115.72688738 253.2499149 118.35532798 253.28094355 120.984375 253.3125 C122.67187039 253.31903338 124.35937134 253.32428253 126.046875 253.328125 C126.82424011 253.3404718 127.60160522 253.3528186 128.40252686 253.36553955 C133.64086465 253.34450205 138.47675055 252.83072115 143 250 C147.33704871 244.60229735 147.59303053 239.87849238 147.53125 233.12109375 C147.5350769 232.19079849 147.53890381 231.26050323 147.54284668 230.30201721 C147.5455568 228.34464428 147.53825895 226.38723457 147.52148438 224.42993164 C147.50003732 221.44269824 147.52132902 218.457863 147.546875 215.47070312 C147.54423204 213.56249472 147.53910771 211.6542878 147.53125 209.74609375 C147.53934692 208.85844833 147.54744385 207.97080292 147.55578613 207.05625916 C147.4734268 201.58347466 146.76041101 198.26773518 143 194 C140.11472149 192.23403644 137.94796314 191.7457842 134.58618164 191.7253418 C133.72170914 191.71580978 132.85723663 191.70627777 131.96656799 191.69645691 C131.04045212 191.69736832 130.11433624 191.69827972 129.16015625 191.69921875 C127.72149452 191.69279106 127.72149452 191.69279106 126.25376892 191.68623352 C124.22721139 191.68049566 122.20063327 191.67998595 120.17407227 191.68432617 C117.07727848 191.68748493 113.98144126 191.6640242 110.88476562 191.63867188 C108.9140637 191.63639868 106.94335922 191.63569548 104.97265625 191.63671875 C104.04856461 191.627509 103.12447296 191.61829926 102.17237854 191.60881042 C96.19128635 191.65174946 92.42439989 192.31584297 88.25 196.9375 Z M207 197 C204.37709032 201.35247191 204.69377471 206.05122911 204.69921875 210.9921875 C204.69493362 211.85635284 204.6906485 212.72051819 204.68623352 213.61087036 C204.68050402 215.43474453 204.67997977 217.25864154 204.68432617 219.08251953 C204.68748159 221.85879944 204.66402595 224.63400827 204.63867188 227.41015625 C204.63639814 229.18749866 204.63569573 230.96484393 204.63671875 232.7421875 C204.627509 233.5653244 204.61829926 234.3884613 204.60881042 235.23654175 C204.65114114 240.56569414 205.50957777 244.26564914 208 249 C211.54956057 252.43505862 215.19731217 253.11280125 220.01489258 253.16113281 C220.79282669 253.17074036 221.5707608 253.1803479 222.37226868 253.19024658 C223.20461533 253.19449646 224.03696198 253.19874634 224.89453125 253.203125 C225.76011154 253.20882507 226.62569183 253.21452515 227.51750183 253.22039795 C229.34734887 253.22983201 231.17721278 253.23637559 233.00708008 253.24023438 C235.79213446 253.24992911 238.57644713 253.28096282 241.36132812 253.3125 C243.14322481 253.31903183 244.92512674 253.32428159 246.70703125 253.328125 C247.94644218 253.3466452 247.94644218 253.3466452 249.21089172 253.36553955 C254.54969673 253.34519097 258.33650427 252.68998496 263 250 C267.00876034 245.68795709 266.4509797 240.44411071 266.43359375 234.87890625 C266.4388356 233.90138901 266.44407745 232.92387177 266.44947815 231.91673279 C266.45588996 229.85327096 266.45457226 227.78977253 266.44604492 225.72631836 C266.43753821 222.57664608 266.46630341 219.42878998 266.49804688 216.27929688 C266.49965917 214.27083387 266.49908082 212.26236768 266.49609375 210.25390625 C266.50732773 209.31623917 266.51856171 208.37857208 266.53013611 207.41249084 C266.47067675 201.80725773 265.89055427 198.35541751 262 194 C259.09620407 192.22449492 256.892488 191.74019131 253.51025391 191.69360352 C252.18835556 191.66962242 252.18835556 191.66962242 250.8397522 191.64515686 C249.8948996 191.63979416 248.950047 191.63443146 247.9765625 191.62890625 C246.99763031 191.61987778 246.01869812 191.6108493 245.01010132 191.60154724 C242.94068456 191.58705079 240.87122204 191.57815951 238.80175781 191.57446289 C235.64309117 191.56256813 232.4863794 191.51337738 229.328125 191.46289062 C227.31511368 191.45342581 225.30209039 191.44619105 223.2890625 191.44140625 C222.34825836 191.42187393 221.40745422 191.40234161 220.43814087 191.38221741 C214.19023251 191.42500062 211.21654397 192.2811705 207 197 Z M328 196 C326.22401594 198.90352677 325.74019061 201.10756272 325.69360352 204.48974609 C325.67761612 205.37101166 325.66162872 206.25227722 325.64515686 207.1602478 C325.63979416 208.1051004 325.63443146 209.049953 325.62890625 210.0234375 C325.61987778 211.00236969 325.6108493 211.98130188 325.60154724 212.98989868 C325.58705079 215.05931544 325.57815951 217.12877796 325.57446289 219.19824219 C325.56256813 222.35690883 325.51337738 225.5136206 325.46289062 228.671875 C325.45342581 230.68488632 325.44619105 232.69790961 325.44140625 234.7109375 C325.42187393 235.65174164 325.40234161 236.59254578 325.38221741 237.56185913 C325.41170383 241.86795166 325.53293074 245.03074877 328.22241211 248.51806641 C333.55433245 253.2824421 338.14014589 253.30833095 344.9921875 253.30078125 C346.28843552 253.30720894 346.28843552 253.30720894 347.61087036 253.31376648 C349.43474453 253.31949598 351.25864154 253.32002023 353.08251953 253.31567383 C355.85879944 253.31251841 358.63400827 253.33597405 361.41015625 253.36132812 C363.18749866 253.36360186 364.96484393 253.36430427 366.7421875 253.36328125 C367.97689285 253.37709587 367.97689285 253.37709587 369.23654175 253.39118958 C374.56569414 253.34885886 378.26564914 252.49042223 383 250 C387.60546407 245.24102046 387.17013685 239.6152239 387.203125 233.32421875 C387.21167511 232.05914238 387.21167511 232.05914238 387.22039795 230.76850891 C387.22983097 228.98574064 387.23637518 227.20295507 387.24023438 225.42016602 C387.24992841 222.70753178 387.28096268 219.99565933 387.3125 217.28320312 C387.31903194 215.54687947 387.32428166 213.81055043 387.328125 212.07421875 C387.3404718 211.26981857 387.3528186 210.4654184 387.36553955 209.63664246 C387.342216 203.67289688 386.32939859 198.91174824 382.5 194.125 C379.71960473 192.03970355 377.05951406 191.86648937 373.71557617 191.82299805 C372.85425583 191.81016281 371.99293549 191.79732758 371.10551453 191.78410339 C369.71330437 191.77302299 369.71330437 191.77302299 368.29296875 191.76171875 C367.33481766 191.753647 366.37666656 191.74557526 365.38948059 191.73725891 C363.36115321 191.72342807 361.33280264 191.71270144 359.30444336 191.70483398 C356.20967299 191.68762331 353.11597163 191.64372831 350.02148438 191.59960938 C348.04948701 191.58948188 346.07748058 191.58096595 344.10546875 191.57421875 C343.18340134 191.55671066 342.26133392 191.53920258 341.31132507 191.52116394 C335.72970801 191.53991662 332.34075554 192.12931943 328 196 Z " fill="#000000" transform="translate(15,161)"/>
<path d="M0 0 C1.08081848 0.00007553 2.16163696 0.00015106 3.27520752 0.00022888 C4.43574646 0.00539017 5.5962854 0.01055145 6.79199219 0.01586914 C7.98491882 0.01728409 9.17784546 0.01869904 10.40692139 0.02015686 C14.21759548 0.02575501 18.02821085 0.03830721 21.83886719 0.05102539 C24.42219967 0.05604063 27.00553308 0.06060349 29.58886719 0.06469727 C35.92222056 0.07572384 42.25553968 0.09246016 48.58886719 0.11352539 C48.59473343 0.71407745 48.60059967 1.31462952 48.60664368 1.93338013 C48.67067935 8.19555887 48.75512541 14.45722854 48.85131836 20.71899414 C48.88453052 23.05453776 48.91257395 25.39016092 48.93530273 27.72583008 C48.9689162 31.08717684 49.02123721 34.44779708 49.07714844 37.80883789 C49.08353836 38.84968536 49.08992828 39.89053284 49.09651184 40.96292114 C49.20640382 46.40675344 49.49178232 50.42908871 52.58886719 55.11352539 C55.5225318 57.60486363 58.85122975 59.0400591 62.71386719 59.20336914 C66.52507206 58.80636863 70.28083996 58.05942376 73.58886719 56.11352539 C74.89955052 53.67063912 74.89955052 53.67063912 75.58886719 51.11352539 C76.08386719 50.12352539 76.08386719 50.12352539 76.58886719 49.11352539 C76.91886719 32.94352539 77.24886719 16.77352539 77.58886719 0.11352539 C157.44886719 0.11352539 237.30886719 0.11352539 319.58886719 0.11352539 C319.91886719 16.28352539 320.24886719 32.45352539 320.58886719 49.11352539 C321.57886719 50.76352539 322.56886719 52.41352539 323.58886719 54.11352539 C323.58886719 54.77352539 323.58886719 55.43352539 323.58886719 56.11352539 C327.77197423 58.07435682 331.9574801 59.22228595 336.58886719 59.11352539 C339.90691861 57.78923266 339.90691861 57.78923266 342.58886719 56.11352539 C343.24886719 56.11352539 343.90886719 56.11352539 344.58886719 56.11352539 C346.67783299 52.07485818 347.71221723 48.83021568 347.79418945 44.27490234 C347.81413467 43.29411209 347.8340799 42.31332184 347.85462952 41.30281067 C347.87134201 40.24647934 347.8880545 39.19014801 347.90527344 38.10180664 C347.93644508 36.4767646 347.93644508 36.4767646 347.96824646 34.81889343 C348.03368515 31.35466923 348.09260072 27.89036859 348.15136719 24.42602539 C348.19455779 22.07901225 348.23817226 19.73200686 348.28222656 17.38500977 C348.38936075 11.62792935 348.49113783 5.87077272 348.58886719 0.11352539 C356.183557 0.01134143 363.77806676 -0.05826665 371.37329102 -0.10620117 C373.95213445 -0.12620346 376.53093319 -0.15341417 379.10961914 -0.18823242 C382.83588758 -0.23725278 386.56155166 -0.25955835 390.28808594 -0.27709961 C391.99202766 -0.30806732 391.99202766 -0.30806732 393.73039246 -0.33966064 C409.89253713 -0.34409907 422.68282693 5.84493272 434.32714844 16.75805664 C455.46772938 38.7749311 445.58886719 71.59785371 445.58886719 100.11352539 C286.52886719 100.11352539 127.46886719 100.11352539 -36.41113281 100.11352539 C-36.41113281 23.89176068 -36.41113281 23.89176068 -23.16113281 9.36352539 C-16.76188092 3.2350659 -8.78556227 -0.02052701 0 0 Z " fill="#000000" transform="translate(51.4111328125,29.886474609375)"/>
</svg>
