<?xml version="1.0" encoding="UTF-8"?>
<svg version="1.1" xmlns="http://www.w3.org/2000/svg" width="512" height="512">
<path d="M0 0 C4.4690575 3.04755531 8.16071317 6.77421809 11.95404196 10.60968065 C12.83631657 11.4857153 13.71859118 12.36174995 14.62760139 13.2643311 C17.05208716 15.67570546 19.46739959 18.09562392 21.87908483 20.51975942 C24.49080554 23.14058065 27.11407247 25.74980316 29.73582602 28.36058092 C34.86112502 33.46814326 39.97561196 38.58639996 45.08623615 43.70864162 C49.24192414 47.8733828 53.4015238 52.03417945 57.56391287 56.19222307 C58.1575283 56.78522557 58.75114373 57.37822807 59.36274751 57.98920034 C60.56888387 59.19405774 61.77502918 60.39890619 62.98118332 61.60374579 C74.27665758 72.88782846 85.55986491 84.18411297 96.83888009 95.48464403 C106.50585889 105.16949249 116.18327677 114.84380586 125.86840963 124.51049852 C137.12998092 135.75063798 148.38500164 146.99727103 159.62972713 158.25426507 C160.83001986 159.45583193 162.03032092 160.65739047 163.2306304 161.8589406 C163.82111996 162.45004726 164.41160951 163.04115392 165.01999269 163.6501729 C169.17091076 167.80453692 173.32643621 171.95425726 177.48378897 176.10218096 C182.55378265 181.16092757 187.61652885 186.22679776 192.67026892 191.30178389 C195.24630292 193.88829186 197.82536038 196.47157017 200.4132762 199.04619455 C203.22419529 201.84289524 206.0193192 204.65505738 208.81317282 207.46881151 C209.62542845 208.27214426 210.43768409 209.07547701 211.27455354 209.90315318 C221.92943253 220.70529539 227.97250989 232.55719448 228.1296401 247.79321337 C228.05064696 255.45272711 227.24584524 261.92242361 223.6296401 268.79321337 C223.2171401 269.63883837 222.8046401 270.48446337 222.3796401 271.35571337 C216.17231813 282.92390432 206.19605634 289.83927673 194.0046401 294.04321337 C188.57373038 295.25008219 183.41689805 295.84728662 177.8718276 295.81665087 C176.67469137 295.81157518 176.67469137 295.81157518 175.45337057 295.80639696 C174.85153952 295.80204638 174.24970846 295.79769579 173.6296401 295.79321337 C173.63240548 296.97348116 173.63240548 296.97348116 173.63522673 298.17759275 C173.67949223 317.36776067 173.71253862 336.55791834 173.73326445 355.74812651 C173.74355499 365.02855503 173.75757261 374.30894937 173.78051901 383.58935595 C173.80052117 391.68288917 173.81337267 399.77639763 173.81781709 407.86995488 C173.82041296 412.15111934 173.82646754 416.43221295 173.84110022 420.71335459 C173.85479226 424.75245906 173.85883955 428.79146429 173.85585546 432.83058977 C173.85640048 434.3038498 173.86030811 435.77711355 173.86805105 437.25035334 C173.96652529 456.97370916 170.74689636 473.90286268 157.1296401 488.85571337 C142.14398253 503.18234585 125.14590962 504.25691994 105.5124526 504.19165087 C103.36538739 504.19367447 101.21832285 504.19658829 99.07125998 504.20034838 C94.5913039 504.2047525 90.11152822 504.19839863 85.63159323 504.18432665 C79.89160135 504.16717375 74.15202847 504.17712669 68.41205168 504.19504404 C63.98712134 504.20588064 59.56229056 504.20243715 55.13735723 504.19466066 C53.02026332 504.19266154 50.90316033 504.19510782 48.78607702 504.20209932 C45.83280807 504.20971848 42.88022149 504.19810559 39.92700338 504.18139696 C39.05523962 504.18746965 38.18347586 504.19354235 37.28529501 504.19979906 C32.56592655 504.15033689 29.46651387 503.84084651 25.6296401 500.79321337 C21.94023632 496.59139239 20.506846 494.2999116 20.4916091 488.75389147 C20.48615576 487.68713686 20.48070242 486.62038225 20.47508383 485.52130175 C20.4740415 484.34573717 20.47299917 483.1701726 20.47192526 481.95898485 C20.46684454 480.7246924 20.46176382 479.49039995 20.45652914 478.2187047 C20.44580468 475.52970932 20.43680952 472.84076604 20.43040991 470.15176249 C20.41972797 465.89386292 20.39947999 461.63604278 20.37729025 457.37818956 C20.31538105 445.26876536 20.26143919 433.15934467 20.22827291 421.04980516 C20.20988307 414.36475619 20.1808881 407.67983924 20.14026821 400.99488741 C20.11926202 397.45946866 20.10375015 393.9242159 20.10146093 390.38873148 C20.09889926 386.43675118 20.07336166 382.48509467 20.04614401 378.5332036 C20.04915014 377.37180864 20.05215628 376.21041368 20.05525351 375.01382494 C19.95898491 365.58487796 18.42036258 356.80240413 11.6296401 349.79321337 C6.31113148 345.8611025 1.47047633 344.67652705 -5.02172709 344.63208055 C-6.15680704 344.62247301 -7.291887 344.61286547 -8.46136332 344.60296679 C-9.68430094 344.59871691 -10.90723856 344.59446703 -12.1672349 344.59008837 C-13.42997232 344.58438829 -14.69270975 344.57868822 -15.99371195 344.57281542 C-18.66682393 344.56336804 -21.33982373 344.55646998 -24.01293802 344.55297899 C-27.42005958 344.5475075 -30.82677885 344.52350065 -34.23377466 344.49500704 C-37.50323043 344.47177535 -40.77270818 344.46992379 -44.0422349 344.46508837 C-45.2570756 344.45274157 -46.47191629 344.44039476 -47.72357035 344.42767382 C-55.59632193 344.44826033 -61.23412556 345.29223446 -68.0578599 349.41821337 C-73.77793306 355.2928831 -76.49080731 362.01751296 -76.50166178 370.13119555 C-76.50566996 371.21344912 -76.50967813 372.29570269 -76.51380777 373.41075182 C-76.51327906 374.59318972 -76.51275034 375.77562761 -76.5122056 376.99389696 C-76.51568003 378.24305391 -76.51915445 379.49221087 -76.52273417 380.77922106 C-76.53008971 383.49383474 -76.53576358 386.20839951 -76.53902483 388.92301607 C-76.54494496 393.21805622 -76.56149456 397.51301396 -76.58036661 401.80801439 C-76.58670364 403.27963109 -76.59302927 404.75124783 -76.59934378 406.22286463 C-76.60250959 406.95975496 -76.6056754 407.69664528 -76.60893714 408.45586562 C-76.6509835 418.45241495 -76.68399144 428.44892522 -76.69628763 438.44555712 C-76.70467177 445.19251137 -76.72717349 451.93926076 -76.7656433 458.68611252 C-76.78538874 462.25443103 -76.7978136 465.8224434 -76.79280901 469.39082003 C-76.78729317 473.3719946 -76.81258135 477.35265211 -76.8403306 481.33374071 C-76.83372919 482.51213015 -76.82712778 483.69051958 -76.82032633 484.90461779 C-76.88999739 490.98392436 -76.98748047 495.16813999 -81.3703599 499.79321337 C-86.37746608 504.20780786 -90.49473645 504.36960341 -96.8571763 504.31079149 C-97.79462687 504.31780077 -98.73207743 504.32481005 -99.69793558 504.33203173 C-102.78956825 504.34959944 -105.88028076 504.33798729 -108.9719224 504.32446337 C-111.13178542 504.32715998 -113.29164726 504.33104381 -115.45150614 504.33606005 C-119.97909966 504.34195461 -124.50637735 504.33339829 -129.03393412 504.31469774 C-134.81048641 504.29199053 -140.58629187 504.30497959 -146.36281633 504.3289876 C-150.82580944 504.34351672 -155.28862879 504.33880568 -159.75162745 504.32847643 C-161.87968266 504.32582449 -164.00775411 504.32902438 -166.13579035 504.33839464 C-187.48873556 504.41174281 -187.48873556 504.41174281 -197.3703599 499.79321337 C-198.18993174 499.41515551 -199.00950357 499.03709764 -199.85391092 498.64758348 C-214.76715586 491.39190547 -222.70426236 478.45845721 -228.6203599 463.66821337 C-230.93607692 454.79129811 -230.50739668 445.5518821 -230.48388529 436.45117235 C-230.4836028 434.91291859 -230.48376236 433.37466469 -230.48432779 431.836411 C-230.48461335 427.68417185 -230.47875583 423.5319619 -230.47175384 419.37972951 C-230.46547992 415.03156147 -230.46491331 410.68339268 -230.46372843 406.33522081 C-230.46062699 398.11192651 -230.45242966 389.88864559 -230.44237894 381.66535717 C-230.43118087 372.29894399 -230.42569806 362.93253014 -230.4206835 353.56611192 C-230.410246 334.3084715 -230.39266964 315.05084351 -230.3703599 295.79321337 C-231.04945414 295.79878756 -231.72854837 295.80436174 -232.42822123 295.81010485 C-233.3230723 295.81444033 -234.21792337 295.81877581 -235.13989115 295.82324266 C-236.02523539 295.82881685 -236.91057962 295.83439104 -237.82275248 295.84013414 C-251.26613941 295.59253942 -262.52900433 290.29000463 -272.1125474 281.17211962 C-281.98041616 270.7750053 -285.00801292 259.21629658 -284.83862162 245.1594243 C-284.22187781 228.09079732 -275.12974938 217.07657278 -263.38931131 205.42448473 C-262.51973492 204.5495228 -261.65015853 203.67456087 -260.75423133 202.77308494 C-258.36840832 200.37553222 -255.97616078 197.98475754 -253.58076859 195.596789 C-250.98770607 193.00849264 -248.40333173 190.41154401 -245.81776285 187.81576586 C-240.76325029 182.74412917 -235.70066553 177.68062691 -230.63495828 172.62017419 C-226.51613742 168.50540688 -222.40008718 164.38788723 -218.28595972 160.26842737 C-217.40518853 159.38653355 -217.40518853 159.38653355 -216.50662398 158.48682368 C-215.31352919 157.29219731 -214.12043778 156.09756756 -212.92734973 154.90293447 C-201.76030678 143.72219053 -190.5837321 132.55101341 -179.40409474 121.38286469 C-169.18800497 111.176713 -158.9834098 100.95915723 -148.78425188 90.73608764 C-138.29377654 80.2212043 -127.79591186 69.71375243 -117.28990161 59.2143901 C-111.39875879 53.32673465 -105.51049241 47.43627242 -99.62986994 41.5381074 C-94.62597723 36.51947181 -89.61506587 31.50797364 -84.59510256 26.50541093 C-82.03691292 23.95571486 -79.48197308 21.40298098 -76.93571138 18.8413682 C-74.16977817 16.05896705 -71.38836826 13.29236732 -68.60537577 10.52702379 C-67.81118915 9.72323217 -67.01700254 8.91944055 -66.19874966 8.09129161 C-47.24054919 -10.62110174 -22.7108912 -13.80069499 0 0 Z " fill="#000000" transform="translate(284.3703598976135,8.206786632537842)"/>
</svg>
