<?xml version="1.0" encoding="UTF-8"?>
<svg version="1.1" xmlns="http://www.w3.org/2000/svg" width="512" height="512">
<path d="M0 0 C1.11996719 -0.00445784 2.23993437 -0.00891569 3.39383996 -0.01350862 C4.6243618 -0.01332426 5.85488364 -0.01313989 7.12269402 -0.01294994 C9.08346754 -0.01846498 9.08346754 -0.01846498 11.08385265 -0.02409142 C14.71541585 -0.03410387 18.34696252 -0.037827 21.97853756 -0.04048073 C25.89417599 -0.04438603 29.80980136 -0.05396421 33.72543144 -0.0626936 C43.18329063 -0.08245163 52.64115088 -0.09252338 62.09902555 -0.10142139 C66.55372234 -0.10580537 71.00841794 -0.11117189 75.46311378 -0.11641026 C90.27293272 -0.13342187 105.08275092 -0.14791585 119.89257812 -0.155159 C123.73538654 -0.15706887 127.57819495 -0.1589892 131.42100334 -0.16094494 C132.37610557 -0.16142868 133.3312078 -0.16191242 134.31525253 -0.16241082 C149.78591068 -0.17071043 165.2564915 -0.19604647 180.72711588 -0.22852562 C196.61300669 -0.26160448 212.4988582 -0.27960851 228.38478363 -0.28280324 C237.30311623 -0.28496757 246.22133606 -0.29370493 255.13963509 -0.31926441 C262.73516355 -0.34098271 270.33055184 -0.34901628 277.92610784 -0.33929763 C281.79979381 -0.33475618 285.67319063 -0.33662984 289.54683685 -0.35605907 C293.75160605 -0.3769665 297.95573537 -0.36669509 302.16053581 -0.35352612 C303.37767332 -0.36449536 304.59481083 -0.37546461 305.8488313 -0.38676625 C317.21568928 -0.30087632 326.39439141 3.02164774 334.52256584 11.13422108 C344.23585336 23.42185429 346.22982433 41.02164344 349.57334709 55.91547108 C350.06525937 58.08908139 350.55763733 60.26258636 351.05044365 62.43599415 C352.10254245 67.08029211 353.15156941 71.7252687 354.19810295 76.37082386 C355.84770487 83.69334854 357.50384791 91.01438345 359.16123772 98.33514881 C360.87750124 105.91715207 362.59340334 113.49923571 364.30702019 121.08183765 C368.272099 138.62530496 372.25543595 156.16454257 376.25303459 173.70062733 C376.52063402 174.87460953 376.78823345 176.04859173 377.06394196 177.25814915 C379.13720489 186.35325686 381.21143434 195.44814408 383.28578377 204.54300404 C384.72863406 210.86936605 386.17092656 217.19585467 387.61235809 223.52254009 C388.25474402 226.34117932 388.8978804 229.1596466 389.54104424 231.97810841 C389.92555301 233.66563416 390.3100211 235.35316918 390.69444084 237.04071522 C390.95281967 238.171539 390.95281967 238.171539 391.21641827 239.32520771 C394.18558877 252.37353206 395.20776765 263.90044926 387.89756584 275.75922108 C382.00554345 283.95871036 375.22900844 289.27991838 365.52256584 292.13422108 C361.19282161 292.67969671 356.91585894 292.67941879 352.55604362 292.64888477 C351.28189783 292.6558303 350.00775203 292.66277583 348.69499576 292.66993183 C345.18332978 292.68846102 341.67208831 292.68228821 338.1604054 292.6717788 C334.3634151 292.66475886 330.56650958 292.68080588 326.7695446 292.69377613 C319.34059074 292.71537537 311.91179031 292.71529964 304.4828154 292.70715059 C298.44195176 292.70084046 292.40113273 292.70199689 286.36026955 292.70842266 C285.49917641 292.70932432 284.63808328 292.71022597 283.75089642 292.71115495 C282.00135652 292.71300623 280.25181664 292.71486879 278.50227676 292.71674251 C262.11007219 292.73330703 245.71795378 292.72461353 229.32575439 292.70775693 C214.3450131 292.6930639 199.36447246 292.70768515 184.38375701 292.73652709 C168.98355161 292.76595475 153.58343871 292.77688338 138.18320644 292.76734489 C136.43963553 292.76632239 134.69606461 292.76532778 132.95249367 292.76436138 C131.6658477 292.7636468 131.6658477 292.7636468 130.35320888 292.76291778 C124.3243707 292.76075794 118.29562051 292.77053482 112.26680183 292.78513241 C104.91260457 292.80269144 97.55866292 292.8024875 90.20447554 292.77978075 C86.45601966 292.76867031 82.70801353 292.76540254 78.95957756 292.78408146 C74.88703671 292.80411341 70.81558263 292.78503043 66.74305534 292.76241016 C65.57085477 292.77424589 64.3986542 292.78608162 63.19093239 292.79827601 C53.21886517 292.68612721 43.41749249 289.97798895 36.04209709 282.90765858 C24.87924315 269.87954627 22.79598293 251.16213692 19.15537834 234.94672108 C18.63861306 232.66245326 18.12138052 230.3782911 17.60371208 228.09422779 C16.51061902 223.26723666 15.42051835 218.43958394 14.33286858 213.61136341 C12.64430977 206.11621789 10.9484433 198.62273862 9.25108147 191.12958241 C7.29255262 182.4818575 5.33511209 173.83388872 3.37982368 165.18543053 C-0.42836415 148.34174956 -4.24667405 131.50043134 -8.09858894 114.66669178 C-8.96206465 110.88896306 -9.82111905 107.11024614 -10.68007088 103.3314867 C-11.18514254 101.12373589 -11.69049159 98.9160485 -12.19618416 96.70843983 C-12.4178727 95.72856602 -12.63956123 94.74869221 -12.86796761 93.73912525 C-13.16868675 92.43362469 -13.16868675 92.43362469 -13.47548103 91.10175037 C-13.6465638 90.35209507 -13.81764656 89.60243977 -13.99391365 88.83006763 C-14.3342398 87.11537448 -14.3342398 87.11537448 -15.47743416 86.13422108 C-19.10394368 102.00194964 -22.72966251 117.86985865 -26.35451603 133.73796558 C-28.03877041 141.11085443 -29.72326618 148.48368797 -31.40834236 155.85638905 C-31.90134588 158.01354836 -32.39434095 160.17070961 -32.88732982 162.32787228 C-33.21406821 163.75753732 -33.54082513 165.18719812 -33.86760068 166.61685467 C-35.63466104 174.34807127 -37.39973247 182.07973178 -39.15916634 189.81268787 C-39.62435403 191.85685656 -40.08956393 193.9010202 -40.55479932 195.94517803 C-40.85825448 197.27853812 -41.16166559 198.61190824 -41.46503139 199.94528866 C-43.21012099 207.61322263 -44.97047582 215.27723972 -46.76066303 222.93477345 C-47.64246469 226.71031712 -48.51574678 230.48779974 -49.3875618 234.26566029 C-49.77706006 235.94234791 -50.17089997 237.61803413 -50.56951904 239.29257679 C-51.1027017 241.53296003 -51.6209977 243.77629288 -52.13588142 246.02093983 C-52.56550934 247.84951527 -52.56550934 247.84951527 -53.0038166 249.71503162 C-53.52295874 253.46287688 -53.27295424 256.444333 -52.47743416 260.13422108 C-49.20024322 263.22845946 -43.80166181 262.41273491 -39.54774666 262.40765858 C-37.76518831 262.42794853 -35.98263627 262.44879933 -34.20009041 262.47015858 C-31.40006867 262.49274336 -28.60029667 262.50922555 -25.80018806 262.51508045 C-23.09058583 262.52462635 -20.38209801 262.55842746 -17.67274666 262.59515858 C-16.84131142 262.59011311 -16.00987617 262.58506763 -15.15324593 262.57986927 C-9.78835002 262.67022989 -6.75548567 263.6087517 -2.47743416 267.13422108 C1.12313858 271.09485109 1.02587466 275.34917766 0.87412834 280.47406483 C0.25193727 285.18197727 -1.8799815 287.83011029 -5.47303963 290.76337147 C-9.90434328 292.78529329 -14.04265294 292.58242879 -18.86024666 292.56781483 C-19.87029762 292.57305668 -20.88034859 292.57829853 -21.92100716 292.58369923 C-24.05764537 292.59011509 -26.19431893 292.58878808 -28.33094978 292.580266 C-31.57053848 292.57180439 -34.8083342 292.60044613 -38.04774666 292.63226795 C-40.13107947 292.63388154 -42.21441536 292.63329942 -44.29774666 292.63031483 C-45.25335487 292.64154881 -46.20896309 292.65278278 -47.19352913 292.66435719 C-58.0439743 292.55419828 -66.46719762 289.16271321 -74.24696541 281.63031483 C-81.88352 273.08432817 -84.78037038 264.65697486 -84.69438362 253.37851429 C-84.27241721 247.06836841 -82.71156381 240.97232009 -81.27040291 234.83343983 C-80.91735501 233.28929401 -80.56538045 231.74490247 -80.21437263 230.20029163 C-79.24839554 225.9632641 -78.26772208 221.72975698 -77.28458977 217.49668217 C-76.23384508 212.96077366 -75.19677851 208.42173948 -74.15834236 203.88300037 C-72.31048345 195.81381888 -70.45439504 187.7465625 -68.59462166 179.68011951 C-65.48520529 166.18869505 -62.4034391 152.69098617 -59.32462311 139.19255352 C-54.59249003 118.44590471 -49.85779708 97.69982227 -45.10791206 76.95723057 C-44.5826415 74.66253066 -44.05781844 72.36772825 -43.53351021 70.07280827 C-42.10137457 63.80509972 -40.65647849 57.54054777 -39.20066643 51.27829838 C-38.43794092 47.96253379 -37.69737394 44.64221753 -36.95732307 41.32132435 C-36.44735246 39.08591023 -35.9368997 36.85060603 -35.42592049 34.61542225 C-35.09318516 33.0861219 -35.09318516 33.0861219 -34.75372791 31.52592659 C-32.34429559 21.13572915 -27.90935442 12.8417625 -19.47743416 6.13422108 C-13.07694867 2.25543062 -7.5002905 0.01385565 0 0 Z M2.52256584 29.13422108 C7.11384375 49.92238454 11.76137819 70.69389905 16.61240959 91.42328358 C17.16066801 93.77319256 17.7087218 96.12314929 18.25658989 98.4731493 C19.69436654 104.63863503 21.13414585 110.80365107 22.57450676 116.96853352 C25.27747035 128.5387276 27.97707661 140.10970471 30.67490959 151.68109608 C30.97059208 152.9490741 31.26627457 154.21705212 31.57091713 155.52345371 C35.41039922 171.993684 39.21429867 188.47144163 42.96397209 204.96234608 C43.36763864 206.73505364 43.77135964 208.5077488 44.17513847 210.28043079 C45.81987507 217.50459429 47.46128471 224.72941357 49.08415699 231.95852375 C49.72327747 234.79885146 50.36844891 237.63777978 51.0152092 240.47637653 C51.44239144 242.36093609 51.86144732 244.24733209 52.28014946 246.13379383 C53.86640547 255.31564578 53.86640547 255.31564578 59.30116755 262.26403779 C61.89262827 263.27918479 63.84211804 263.38600281 66.6235323 263.38869667 C67.65949809 263.39452886 68.69546388 263.40036106 69.76282257 263.40636998 C70.8994813 263.40259066 72.03614003 263.39881134 73.20724297 263.39491749 C74.41586433 263.39874304 75.6244857 263.40256858 76.86973196 263.40651006 C80.22598225 263.41505446 83.58201391 263.4146022 86.93825805 263.41032946 C90.55727922 263.40786659 94.17627445 263.41687092 97.79528618 263.42436695 C104.88579022 263.4371281 111.97625642 263.43890589 119.06677001 263.43656669 C124.82893638 263.43478499 130.59109124 263.43652998 136.35325623 263.44079113 C137.58253825 263.44168391 137.58253825 263.44168391 138.83665426 263.44259473 C140.50141147 263.44380646 142.16616868 263.44502059 143.83092589 263.44623711 C159.44934773 263.45711805 175.067748 263.4549475 190.68617106 263.44885226 C204.98005613 263.4436823 219.27387307 263.45493964 233.56774466 263.47395048 C248.2388529 263.49331373 262.90992888 263.50158757 277.58104998 263.49782723 C285.82011727 263.49591292 294.05912656 263.49842508 302.29818344 263.51254177 C309.3119431 263.52443726 316.32560905 263.5258811 323.33936995 263.5137516 C326.91872408 263.50785005 330.49790667 263.5067985 334.07724953 263.51875401 C337.95522038 263.53155659 341.83292938 263.5211787 345.71090508 263.50844288 C346.84533308 263.51581716 347.97976109 263.52319145 349.14856571 263.5307892 C350.70642602 263.51997938 350.70642602 263.51997938 352.29575825 263.50895119 C353.1908691 263.5090062 354.08597995 263.50906122 355.00821537 263.5091179 C358.1313248 263.04345338 360.00748466 262.02478818 362.52256584 260.13422108 C364.00407233 254.90978011 363.26915691 250.41711819 362.02915764 245.2443285 C361.8559534 244.4779906 361.68274916 243.7116527 361.5042963 242.92209244 C360.9217718 240.35847371 360.3217399 237.79928066 359.72178459 235.23968983 C359.29695628 233.38604769 358.87325063 231.53214796 358.45057487 229.6780138 C357.29346033 224.61604233 356.12130597 219.55765842 354.94658089 214.49974918 C353.70948492 209.16173771 352.48602087 203.82060579 351.26157951 198.47968006 C349.69834409 191.66514017 348.1334443 184.850995 346.56249809 178.03822803 C342.76822702 161.58246052 339.00963023 145.11880695 335.2729454 128.64988995 C334.37929997 124.71131737 333.48491558 120.77291288 332.59033012 116.83455372 C332.37060751 115.86720632 332.37060751 115.86720632 332.14644605 114.88031656 C331.41191862 111.64653618 330.67735505 108.41276402 329.94279385 105.17899132 C328.4969809 98.81370175 327.05177594 92.44827555 325.60786247 86.08255482 C324.2411185 80.05849479 322.87079583 74.03525882 321.49790382 68.01259708 C320.99235507 65.79218313 320.48801126 63.57149443 319.984972 61.3505106 C319.29342319 58.29794019 318.59759374 55.2463751 317.90073967 52.19501209 C317.60401375 50.87823617 317.60401375 50.87823617 317.30129337 49.5348587 C316.73362509 47.06106037 316.1343624 44.59744643 315.52256584 42.13422108 C315.31167509 41.22982729 315.10078434 40.3254335 314.88350296 39.39363384 C314.65346888 38.50239882 314.42343479 37.61116379 314.18642998 36.69292164 C313.8879744 35.48911555 313.8879744 35.48911555 313.58348942 34.26099014 C312.11988114 31.32698352 310.42944318 30.59314111 307.52256584 29.13422108 C304.91764178 28.69425901 304.91764178 28.69425901 302.14402866 28.76507759 C301.07163777 28.75910445 299.99924688 28.7531313 298.89435929 28.74697715 C297.72218427 28.75571567 296.55000924 28.7644542 295.34231377 28.77345753 C293.46768038 28.76961262 293.46768038 28.76961262 291.5551756 28.76569003 C288.08888783 28.75898284 284.62287821 28.77098072 281.15662587 28.78602421 C277.41775597 28.79897704 273.67890181 28.79459565 269.94001579 28.79231739 C263.46302574 28.79074418 256.98612634 28.80015837 250.50915909 28.81703091 C241.14456149 28.84140985 231.78000772 28.84922504 222.41538183 28.85299488 C207.2219997 28.8595611 192.02866588 28.87952689 176.83530998 28.90790272 C162.07619786 28.93543887 147.31709886 28.95667463 132.55796623 28.96942616 C131.6482462 28.97021433 130.73852616 28.9710025 129.80123886 28.97181455 C125.23745038 28.97572966 120.67366181 28.97952078 116.10987318 28.98325026 C78.24740328 29.01435148 40.38498832 29.06719192 2.52256584 29.13422108 Z " fill="#000000" transform="translate(101.4774341583252,109.86577892303467)"/>
<path d="M0 0 C3.96376986 2.048784 6.46287856 4.08464036 7.9765625 8.26953125 C8.61390975 13.47984503 8.89159772 17.60309063 6.31640625 22.29296875 C3.84980969 25.43077607 1.18364211 27.95724137 -1.8984375 30.45703125 C-2.46651123 30.9277002 -3.03458496 31.39836914 -3.61987305 31.88330078 C-8.21223798 35.66613638 -12.88592149 39.34672404 -17.57958984 43.00268555 C-22.10958653 46.53314351 -26.57502539 50.13696412 -31.0234375 53.76953125 C-35.96277863 57.80173088 -40.9315557 61.78774148 -45.9609375 65.70703125 C-51.24505447 69.82616994 -56.427894 74.05628467 -61.5859375 78.33203125 C-83.84472091 96.76854846 -83.84472091 96.76854846 -93.21875 96.5859375 C-99.05067883 95.92801795 -101.73961415 92.82164929 -105.28515625 88.53515625 C-107.47394935 85.75354683 -109.57992954 82.91369873 -111.68212891 80.06640625 C-113.88737893 77.11215794 -116.17501463 74.2240084 -118.4609375 71.33203125 C-119.37634702 70.16800409 -120.29171128 69.00394133 -121.20703125 67.83984375 C-123.15153255 65.37148138 -125.10334187 62.90907194 -127.05859375 60.44921875 C-127.55496338 59.82265381 -128.05133301 59.19608887 -128.56274414 58.55053711 C-129.50868594 57.35668677 -130.45694587 56.16466802 -131.40795898 54.97485352 C-136.36246412 48.71325765 -138.61252529 44.95156432 -138.375 36.9296875 C-137.73373592 32.07745599 -135.48300641 29.44529509 -131.7734375 26.45703125 C-127.53554906 24.62703397 -123.56725427 23.47091723 -119.08862305 24.87695312 C-113.55849299 27.52615076 -110.31841342 30.85807845 -106.6484375 35.70703125 C-106.09897461 36.40916748 -105.54951172 37.11130371 -104.98339844 37.8347168 C-103.86214114 39.27167262 -102.74749689 40.713814 -101.63964844 42.16113281 C-100.11002887 44.15657006 -98.55966163 46.13347093 -97 48.10546875 C-90.18688503 56.77918866 -90.18688503 56.77918866 -89.0234375 60.26953125 C-80.93990883 53.96690499 -72.92666095 47.58831593 -64.98608398 41.10644531 C-60.72292256 37.63272023 -56.42341615 34.21234634 -52.0859375 30.83203125 C-46.74454043 26.66589546 -41.49543762 22.39675395 -36.2734375 18.08203125 C-35.54987061 17.48479248 -34.82630371 16.88755371 -34.08081055 16.2722168 C-31.04227154 13.76363525 -28.00463803 11.25397721 -24.96875 8.7421875 C-9.88438819 -3.5683023 -9.88438819 -3.5683023 0 0 Z " fill="#000000" transform="translate(351.0234375,212.73046875)"/>
</svg>
